<?xml version="1.0" encoding="UTF-8" standalone="no"?>
<!-- Generator: Adobe Illustrator 16.0.0, SVG Export Plug-In . SVG Version: 6.00 Build 0)  -->

<svg
   xmlns:dc="http://purl.org/dc/elements/1.1/"
   xmlns:cc="http://creativecommons.org/ns#"
   xmlns:rdf="http://www.w3.org/1999/02/22-rdf-syntax-ns#"
   xmlns:svg="http://www.w3.org/2000/svg"
   xmlns="http://www.w3.org/2000/svg"
   xmlns:sodipodi="http://sodipodi.sourceforge.net/DTD/sodipodi-0.dtd"
   xmlns:inkscape="http://www.inkscape.org/namespaces/inkscape"
   version="1.1"
   id="Capa_1"
   x="0px"
   y="0px"
   width="21"
   height="21"
   viewBox="0 0 21 21"
   xml:space="preserve"
   inkscape:version="0.48.4 r9939"
   sodipodi:docname="explore.svg"><metadata
     id="metadata3109"><rdf:RDF><cc:Work
         rdf:about=""><dc:format>image/svg+xml</dc:format><dc:type
           rdf:resource="http://purl.org/dc/dcmitype/StillImage" /></cc:Work></rdf:RDF></metadata><defs
     id="defs3107" /><sodipodi:namedview
     pagecolor="#ffffff"
     bordercolor="#666666"
     borderopacity="1"
     objecttolerance="10"
     gridtolerance="10"
     guidetolerance="10"
     inkscape:pageopacity="0"
     inkscape:pageshadow="2"
     inkscape:window-width="1680"
     inkscape:window-height="1024"
     id="namedview3105"
     showgrid="false"
     inkscape:zoom="2.6928105"
     inkscape:cx="248.97816"
     inkscape:cy="68.330097"
     inkscape:window-x="0"
     inkscape:window-y="0"
     inkscape:window-maximized="1"
     inkscape:current-layer="_x38__3_" /><g
     id="_x38__3_"
     transform="matrix(0.03267974,0,0,0.03267974,0,1)"><g
       id="g3071"
       style="fill:#ffffff"><path
         inkscape:connector-curvature="0"
         id="path3073"
         d="M 306,0 C 136.992,0 0,136.992 0,306 0,475.008 136.992,612 306,612 475.008,612 612,474.988 612,306 612,137.012 475.008,0 306,0 z m 0,573.75 C 158.125,573.75 38.25,453.875 38.25,306 38.25,158.125 158.125,38.25 306,38.25 453.875,38.25 573.75,158.125 573.75,306 573.75,453.875 453.875,573.75 306,573.75 z M 420.75,286.875 H 325.125 V 191.25 c 0,-10.557 -8.568,-19.125 -19.125,-19.125 -10.557,0 -19.125,8.568 -19.125,19.125 v 95.625 H 191.25 c -10.557,0 -19.125,8.568 -19.125,19.125 0,10.557 8.568,19.125 19.125,19.125 h 95.625 v 95.625 c 0,10.557 8.568,19.125 19.125,19.125 10.557,0 19.125,-8.568 19.125,-19.125 v -95.625 h 95.625 c 10.557,0 19.125,-8.568 19.125,-19.125 0,-10.557 -8.568,-19.125 -19.125,-19.125 z"
         style="fill:#ffffff" /></g></g><g
     id="g3075"
     transform="translate(0,-591)" /><g
     id="g3077"
     transform="translate(0,-591)" /><g
     id="g3079"
     transform="translate(0,-591)" /><g
     id="g3081"
     transform="translate(0,-591)" /><g
     id="g3083"
     transform="translate(0,-591)" /><g
     id="g3085"
     transform="translate(0,-591)" /><g
     id="g3087"
     transform="translate(0,-591)" /><g
     id="g3089"
     transform="translate(0,-591)" /><g
     id="g3091"
     transform="translate(0,-591)" /><g
     id="g3093"
     transform="translate(0,-591)" /><g
     id="g3095"
     transform="translate(0,-591)" /><g
     id="g3097"
     transform="translate(0,-591)" /><g
     id="g3099"
     transform="translate(0,-591)" /><g
     id="g3101"
     transform="translate(0,-591)" /><g
     id="g3103"
     transform="translate(0,-591)" /></svg>