<?xml version="1.0" encoding="UTF-8" standalone="no"?>
<!-- Generator: Adobe Illustrator 16.0.0, SVG Export Plug-In . SVG Version: 6.00 Build 0)  -->

<svg
   xmlns:dc="http://purl.org/dc/elements/1.1/"
   xmlns:cc="http://creativecommons.org/ns#"
   xmlns:rdf="http://www.w3.org/1999/02/22-rdf-syntax-ns#"
   xmlns:svg="http://www.w3.org/2000/svg"
   xmlns="http://www.w3.org/2000/svg"
   xmlns:sodipodi="http://sodipodi.sourceforge.net/DTD/sodipodi-0.dtd"
   xmlns:inkscape="http://www.inkscape.org/namespaces/inkscape"
   version="1.1"
   id="Capa_1"
   x="0px"
   y="0px"
   width="27"
   height="27"
   viewBox="0 0 27 27"
   xml:space="preserve"
   inkscape:version="0.48.4 r9939"
   sodipodi:docname="magnifying47.svg"><metadata
     id="metadata3144"><rdf:RDF><cc:Work
         rdf:about=""><dc:format>image/svg+xml</dc:format><dc:type
           rdf:resource="http://purl.org/dc/dcmitype/StillImage" /></cc:Work></rdf:RDF></metadata><defs
     id="defs3142" /><sodipodi:namedview
     pagecolor="#ffffff"
     bordercolor="#666666"
     borderopacity="1"
     objecttolerance="10"
     gridtolerance="10"
     guidetolerance="10"
     inkscape:pageopacity="0"
     inkscape:pageshadow="2"
     inkscape:window-width="1680"
     inkscape:window-height="999"
     id="namedview3140"
     showgrid="false"
     inkscape:zoom="26.422831"
     inkscape:cx="16.840535"
     inkscape:cy="15.1195"
     inkscape:window-x="0"
     inkscape:window-y="25"
     inkscape:window-maximized="1"
     inkscape:current-layer="Capa_1"
     borderlayer="true" /><g
     id="g3106"
     style="fill:#d3d3d3;fill-opacity:0.82745098"
     transform="matrix(0.87608897,0,0,0.86483327,0.22720022,0.43210115)"><path
       d="m 20.194,3.46 c -4.613,-4.613 -12.121,-4.613 -16.734,0 -4.612,4.614 -4.612,12.121 0,16.735 4.108,4.107 10.506,4.547 15.116,1.34 0.097,0.459 0.319,0.897 0.676,1.254 l 6.718,6.718 c 0.979,0.977 2.561,0.977 3.535,0 0.978,-0.978 0.978,-2.56 0,-3.535 l -6.718,-6.72 C 22.432,18.898 21.993,18.675 21.534,18.578 24.743,13.967 24.303,7.57 20.194,3.46 z m -2.121,14.614 c -3.444,3.444 -9.049,3.444 -12.492,0 -3.442,-3.444 -3.442,-9.048 0,-12.492 3.443,-3.443 9.048,-3.443 12.492,0 3.444,3.444 3.444,9.048 0,12.492 z"
       id="path3108"
       style="fill:#d3d3d3;fill-opacity:0.82745098"
       inkscape:connector-curvature="0" /></g><g
     id="g3110"
     transform="translate(0,-3.2390003)" /><g
     id="g3112"
     transform="translate(0,-3.2390003)" /><g
     id="g3114"
     transform="translate(0,-3.2390003)" /><g
     id="g3116"
     transform="translate(0,-3.2390003)" /><g
     id="g3118"
     transform="translate(0,-3.2390003)" /><g
     id="g3120"
     transform="translate(0,-3.2390003)" /><g
     id="g3122"
     transform="translate(0,-3.2390003)" /><g
     id="g3124"
     transform="translate(0,-3.2390003)" /><g
     id="g3126"
     transform="translate(0,-3.2390003)" /><g
     id="g3128"
     transform="translate(0,-3.2390003)" /><g
     id="g3130"
     transform="translate(0,-3.2390003)" /><g
     id="g3132"
     transform="translate(0,-3.2390003)" /><g
     id="g3134"
     transform="translate(0,-3.2390003)" /><g
     id="g3136"
     transform="translate(0,-3.2390003)" /><g
     id="g3138"
     transform="translate(0,-3.2390003)" /></svg>