<?xml version="1.0" encoding="UTF-8" standalone="no"?>
<!-- Generator: Adobe Illustrator 18.1.1, SVG Export Plug-In . SVG Version: 6.00 Build 0)  -->

<svg
   xmlns:dc="http://purl.org/dc/elements/1.1/"
   xmlns:cc="http://creativecommons.org/ns#"
   xmlns:rdf="http://www.w3.org/1999/02/22-rdf-syntax-ns#"
   xmlns:svg="http://www.w3.org/2000/svg"
   xmlns="http://www.w3.org/2000/svg"
   xmlns:sodipodi="http://sodipodi.sourceforge.net/DTD/sodipodi-0.dtd"
   xmlns:inkscape="http://www.inkscape.org/namespaces/inkscape"
   version="1.1"
   id="Capa_1"
   x="0px"
   y="0px"
   viewBox="0 0 30 22"
   xml:space="preserve"
   inkscape:version="0.48.4 r9939"
   width="100%"
   height="100%"
   sodipodi:docname="lines7.svg"><metadata
     id="metadata3115"><rdf:RDF><cc:Work
         rdf:about=""><dc:format>image/svg+xml</dc:format><dc:type
           rdf:resource="http://purl.org/dc/dcmitype/StillImage" /><dc:title></dc:title></cc:Work></rdf:RDF></metadata><defs
     id="defs3113" /><sodipodi:namedview
     pagecolor="#ffffff"
     bordercolor="#666666"
     borderopacity="1"
     objecttolerance="10"
     gridtolerance="10"
     guidetolerance="10"
     inkscape:pageopacity="0"
     inkscape:pageshadow="2"
     inkscape:window-width="1680"
     inkscape:window-height="1024"
     id="namedview3111"
     showgrid="false"
     inkscape:zoom="4.1546184"
     inkscape:cx="100.57758"
     inkscape:cy="63.543743"
     inkscape:window-x="0"
     inkscape:window-y="0"
     inkscape:window-maximized="1"
     inkscape:current-layer="g3073" /><g
     id="g3073"
     transform="matrix(0.06917474,0,0,0.07219605,1.6848726,-2.9844247)"><g
       id="g3889"><path
         style="fill:#aeaeae;fill-opacity:1"
         d="m 17,87.833 h 362.667 c 9.35,0 17,-7.65 17,-17 0,-9.35 -7.65,-17 -17,-17 H 17 c -9.35,0 -17,7.65 -17,17 0,9.35 7.65,17 17,17 z"
         id="path3075"
         inkscape:connector-curvature="0" /><path
         style="fill:#aeaeae;fill-opacity:1"
         d="m 17,215.333 h 362.667 c 9.35,0 17,-7.65 17,-17 0,-9.35 -7.65,-17 -17,-17 H 17 c -9.35,0 -17,7.65 -17,17 0,9.35 7.65,17 17,17 z"
         id="path3077"
         inkscape:connector-curvature="0" /><path
         style="fill:#aeaeae;fill-opacity:1"
         d="m 17,342.833 h 362.667 c 9.35,0 17,-7.65 17,-17 0,-9.35 -7.65,-17 -17,-17 H 17 c -9.35,0 -17,7.65 -17,17 0,9.35 7.65,17 17,17 z"
         id="path3079"
         inkscape:connector-curvature="0" /></g></g><g
     id="g3081"
     transform="translate(0,-374.66701)" /><g
     id="g3083"
     transform="translate(0,-374.66701)" /><g
     id="g3085"
     transform="translate(0,-374.66701)" /><g
     id="g3087"
     transform="translate(0,-374.66701)" /><g
     id="g3089"
     transform="translate(0,-374.66701)" /><g
     id="g3091"
     transform="translate(0,-374.66701)" /><g
     id="g3093"
     transform="translate(0,-374.66701)" /><g
     id="g3095"
     transform="translate(0,-374.66701)" /><g
     id="g3097"
     transform="translate(0,-374.66701)" /><g
     id="g3099"
     transform="translate(0,-374.66701)" /><g
     id="g3101"
     transform="translate(0,-374.66701)" /><g
     id="g3103"
     transform="translate(0,-374.66701)" /><g
     id="g3105"
     transform="translate(0,-374.66701)" /><g
     id="g3107"
     transform="translate(0,-374.66701)" /><g
     id="g3109"
     transform="translate(0,-374.66701)" /></svg>